<svg width="24" height="25" viewBox="0 0 24 25" fill="none" xmlns="http://www.w3.org/2000/svg">
<path fill-rule="evenodd" clip-rule="evenodd" d="M0.333496 4.73333C0.333496 2.11918 2.45268 0 5.06683 0H14.7651C15.294 0 15.8134 0.0884998 16.3037 0.257034C15.7478 0.323886 15.2502 0.77817 15.2502 1.43791V7.22964C15.2502 7.88521 15.7816 8.41667 16.4372 8.41667H22.2289C22.8238 8.41667 23.2517 8.01203 23.379 7.52488C23.5678 8.04108 23.6668 8.59072 23.6668 9.15017V20.12C23.6668 22.7342 21.5476 24.8533 18.9335 24.8533H5.06683C2.45268 24.8533 0.333496 22.7341 0.333496 20.12V4.73333ZM18.9611 2.2831L17.6892 1.01115C17.8723 1.15501 18.0456 1.31307 18.2075 1.48458L18.9611 2.2831ZM16.7502 2.19348V6.91667H21.4733L16.7502 2.19348ZM15.2209 13.5055C15.5001 13.1995 15.4783 12.7251 15.1723 12.4459C14.8663 12.1668 14.3919 12.1885 14.1128 12.4945L11.0403 15.8624L9.90718 14.5169C9.64037 14.2001 9.16723 14.1595 8.85039 14.4263C8.53356 14.6931 8.493 15.1663 8.75981 15.4831L10.444 17.4831C10.5832 17.6484 10.7868 17.7456 11.0028 17.7499C11.2188 17.7541 11.4262 17.6651 11.5718 17.5055L15.2209 13.5055Z" fill="#2C2C30"/>
</svg>
