<svg width="32" height="32" viewBox="0 0 32 32" fill="none" xmlns="http://www.w3.org/2000/svg">
<path fill-rule="evenodd" clip-rule="evenodd" d="M4.33331 7.73333C4.33331 5.11918 6.4525 3 9.06665 3H18.7649C19.2938 3 19.8132 3.0885 20.3035 3.25703C19.7476 3.32389 19.25 3.77817 19.25 4.43791V10.2296C19.25 10.8852 19.7814 11.4167 20.437 11.4167H26.2287C26.8237 11.4167 27.2515 11.012 27.3789 10.5249C27.5676 11.0411 27.6666 11.5907 27.6666 12.1502V23.12C27.6666 25.7342 25.5475 27.8533 22.9333 27.8533H9.06665C6.4525 27.8533 4.33331 25.7341 4.33331 23.12V7.73333ZM22.9609 5.2831L21.689 4.01115C21.8721 4.15501 22.0455 4.31307 22.2073 4.48458L22.9609 5.2831ZM20.75 5.19348V9.91667H25.4732L20.75 5.19348ZM19.2207 16.5055C19.4999 16.1995 19.4781 15.7251 19.1721 15.4459C18.8661 15.1668 18.3917 15.1885 18.1126 15.4945L15.0401 18.8624L13.907 17.5169C13.6402 17.2001 13.167 17.1595 12.8502 17.4263C12.5334 17.6931 12.4928 18.1663 12.7596 18.4831L14.4438 20.4831C14.583 20.6484 14.7867 20.7456 15.0026 20.7499C15.2186 20.7541 15.426 20.6651 15.5716 20.5055L19.2207 16.5055Z" fill="#B2B2B2"/>
</svg>
