<svg width="31" height="32" viewBox="0 0 31 32" fill="none" xmlns="http://www.w3.org/2000/svg">
<circle cx="15.5" cy="15.5" r="15.5" fill="#E5E5E5"/>
<path d="M13.4512 20.1719C13.4512 18.1914 13.2959 16.4424 12.9854 14.9248C12.6748 13.4014 12.2324 12.0508 11.6582 10.873L13.7061 10.1348C13.8584 10.5391 14.0107 10.9434 14.1631 11.3477C14.3213 11.752 14.4766 12.1562 14.6289 12.5605C14.8223 13.0527 15.0596 13.4102 15.3408 13.6328C15.6279 13.8496 16.0439 13.958 16.5889 13.958C17.5615 13.958 18.0479 13.3281 18.0479 12.0684C18.0479 11.7754 18.0244 11.4795 17.9775 11.1807C17.9307 10.876 17.8867 10.6006 17.8457 10.3545L20.043 10.1084C20.0781 10.3896 20.1133 10.6826 20.1484 10.9873C20.1895 11.2861 20.21 11.6172 20.21 11.9805C20.21 13.2344 19.8994 14.248 19.2783 15.0215C18.6631 15.7949 17.7725 16.1816 16.6064 16.1816C16.1553 16.1816 15.7451 16.1172 15.376 15.9883C15.4697 16.7266 15.5371 17.4561 15.5781 18.1768C15.625 18.8975 15.6484 19.5713 15.6484 20.1982V22H13.4512V20.1719Z" fill="#797877"/>
</svg>
