<svg width="31" height="32" viewBox="0 0 31 32" fill="none" xmlns="http://www.w3.org/2000/svg">
<circle cx="15.5" cy="15.5" r="15.5" fill="#E5E5E5"/>
<path d="M12.6416 20.1719C12.6416 18.1914 12.4863 16.4424 12.1758 14.9248C11.8652 13.4014 11.4229 12.0508 10.8486 10.873L12.9053 10.1348C13.0811 10.6328 13.2598 11.1309 13.4414 11.6289C13.623 12.1211 13.8047 12.6191 13.9863 13.123C14.1855 13.6797 14.5752 13.958 15.1553 13.958C15.4541 13.958 15.6797 13.8232 15.832 13.5537C15.9902 13.2842 16.0723 12.7568 16.0781 11.9717C16.0781 11.7725 16.0781 11.5762 16.0781 11.3828C16.084 11.1895 16.0869 10.9932 16.0869 10.7939L18.1348 10.627C18.1406 10.8379 18.1465 11.0488 18.1523 11.2598C18.1641 11.4707 18.1729 11.6846 18.1787 11.9014C18.208 12.71 18.3105 13.2549 18.4863 13.5361C18.6621 13.8174 18.8584 13.958 19.0752 13.958C19.3623 13.958 19.5645 13.8379 19.6816 13.5977C19.7988 13.3574 19.8574 13.0117 19.8574 12.5605C19.8574 12.0566 19.8311 11.6465 19.7783 11.3301C19.7256 11.0137 19.6699 10.6885 19.6113 10.3545L21.8174 10.0908C21.8584 10.4482 21.8994 10.8057 21.9404 11.1631C21.9873 11.5146 22.0107 11.9629 22.0107 12.5078C22.0107 13.1816 21.9053 13.7969 21.6943 14.3535C21.4893 14.9102 21.167 15.3555 20.7275 15.6895C20.2881 16.0176 19.7256 16.1816 19.04 16.1816C18.3018 16.1816 17.6514 15.9062 17.0889 15.3555C16.8076 15.6367 16.5117 15.8447 16.2012 15.9795C15.8906 16.1143 15.5859 16.1816 15.2871 16.1816C15.1699 16.1816 15.0498 16.1729 14.9268 16.1553C14.8096 16.1377 14.6953 16.1055 14.584 16.0586C14.6719 16.7793 14.7363 17.4854 14.7773 18.1768C14.8184 18.8623 14.8389 19.5361 14.8389 20.1982V22H12.6416V20.1719Z" fill="#797877"/>
</svg>
