<svg width="32" height="32" viewBox="0 0 32 32" fill="none" xmlns="http://www.w3.org/2000/svg">
<path d="M12.1796 27.6978V23.6208C12.1796 22.5801 13.0295 21.7364 14.0778 21.7364H17.9101C18.4135 21.7364 18.8963 21.935 19.2523 22.2884C19.6083 22.6418 19.8083 23.1211 19.8083 23.6208V27.6978C19.8051 28.1305 19.976 28.5465 20.2831 28.8536C20.5902 29.1607 21.008 29.3334 21.4438 29.3333H24.0584C25.2794 29.3365 26.4516 28.8571 27.3161 28.0011C28.1807 27.145 28.6666 25.9827 28.6666 24.7705V13.1558C28.6666 12.1766 28.2293 11.2478 27.4727 10.6196L18.5786 3.56785C17.0315 2.33144 14.8147 2.37136 13.3138 3.66266L4.6226 10.6196C3.83024 11.2293 3.35666 12.1609 3.33325 13.1558V24.7586C3.33325 27.2852 5.39643 29.3333 7.94148 29.3333H10.4963C11.4016 29.3334 12.1372 28.6083 12.1438 27.7097L12.1796 27.6978Z" fill="#2C2C30"/>
</svg>
