<svg width="28" height="28" viewBox="0 0 28 28" fill="none" xmlns="http://www.w3.org/2000/svg">
<path fill-rule="evenodd" clip-rule="evenodd" d="M8.1831 2.52718C4.74711 2.52718 2.5271 4.88318 2.5271 8.51784V19.4698C2.5271 20.4898 2.71644 21.4005 3.04044 22.1885C3.05444 22.1718 3.36011 21.7993 3.75868 21.3136C4.53662 20.3656 5.6685 18.9862 5.67644 18.9792C6.5991 17.9258 8.33111 16.3552 10.6044 17.3058C11.1026 17.5124 11.5454 17.7953 11.953 18.0558C11.9927 18.0812 12.0321 18.1063 12.0711 18.1312C12.8351 18.6418 13.2844 18.8818 13.7511 18.8418C13.9444 18.8152 14.1258 18.7578 14.2978 18.6512C14.9466 18.2512 16.6288 15.8677 17.1325 15.1539C17.2064 15.0493 17.2549 14.9805 17.2711 14.9592C18.7244 13.0658 20.9644 12.5592 22.8311 13.6792C23.0818 13.8285 24.8778 15.0832 25.4724 15.5872V8.51784C25.4724 4.88318 23.2524 2.52718 19.8044 2.52718H8.1831ZM19.8044 0.667175C24.3071 0.667175 27.3324 3.81651 27.3324 8.51784V19.4698C27.3324 19.5881 27.32 19.699 27.3076 19.8098C27.2989 19.8877 27.2902 19.9655 27.2858 20.0458C27.2829 20.0944 27.2815 20.143 27.2801 20.1916C27.2783 20.2563 27.2764 20.3211 27.2711 20.3858C27.2684 20.4112 27.2634 20.4355 27.2584 20.4598C27.2534 20.4842 27.2484 20.5085 27.2458 20.5338C27.2018 20.9525 27.1338 21.3525 27.0391 21.7405C27.0167 21.8375 26.9909 21.931 26.9648 22.0253L26.9591 22.0458C26.8524 22.4218 26.7271 22.7805 26.5764 23.1232C26.55 23.1808 26.5222 23.2369 26.4944 23.2931C26.4758 23.3305 26.4572 23.368 26.4391 23.4058C26.2764 23.7325 26.1004 24.0458 25.8964 24.3365C25.8587 24.3903 25.8185 24.4407 25.7783 24.4913C25.7517 24.5246 25.7251 24.558 25.6991 24.5925C25.4871 24.8672 25.2658 25.1298 25.0151 25.3685C24.9651 25.4161 24.911 25.4596 24.8569 25.5032C24.8231 25.5304 24.7893 25.5576 24.7564 25.5858C24.4991 25.8072 24.2364 26.0192 23.9471 26.2005C23.884 26.2402 23.8169 26.2735 23.75 26.3066C23.7068 26.3281 23.6637 26.3495 23.6218 26.3725C23.3271 26.5352 23.0298 26.6938 22.7058 26.8165C22.6278 26.8461 22.5449 26.8675 22.4617 26.889C22.4026 26.9043 22.3434 26.9196 22.2858 26.9378C22.2569 26.9468 22.2281 26.9557 22.1993 26.9647C21.9099 27.0547 21.6214 27.1445 21.3098 27.1978C21.1292 27.2295 20.9376 27.2416 20.7459 27.2538C20.6629 27.2591 20.5799 27.2643 20.4978 27.2712C20.4095 27.2778 20.3229 27.2884 20.2362 27.2991C20.0952 27.3165 19.9539 27.3338 19.8044 27.3338H8.1831C7.68177 27.3338 7.2031 27.2832 6.74044 27.2072C6.7231 27.2045 6.7071 27.2018 6.6911 27.1992C4.8871 26.8885 3.38977 26.0178 2.34044 24.7045C2.33315 24.7045 2.33029 24.6996 2.32648 24.693C2.32401 24.6888 2.32115 24.6839 2.31644 24.6792C1.26177 23.3512 0.665771 21.5658 0.665771 19.4698V8.51784C0.665771 3.81651 3.69377 0.667175 8.1831 0.667175H19.8044ZM12.6666 9.35325C12.6666 11.1599 11.1549 12.6666 9.3397 12.6666C7.74409 12.6666 6.38363 11.5008 6.07872 9.99148C6.02833 9.76501 5.9999 9.53211 5.9999 9.29149C5.9999 7.47202 7.47794 5.99998 9.30481 5.99998C10.235 5.99998 11.0774 6.39115 11.6808 7.01522C12.2867 7.61742 12.6666 8.44738 12.6666 9.35325Z" fill="#2C2C30"/>
</svg>
