<svg width="32" height="32" viewBox="0 0 32 32" fill="none" xmlns="http://www.w3.org/2000/svg">
<path fill-rule="evenodd" clip-rule="evenodd" d="M10.1832 4.52718C6.74723 4.52718 4.52723 6.88318 4.52723 10.5178V21.4698C4.52723 22.4898 4.71656 23.4005 5.04056 24.1885C5.05456 24.1718 5.36023 23.7993 5.7588 23.3136C6.53674 22.3656 7.66863 20.9862 7.67656 20.9792C8.59923 19.9258 10.3312 18.3552 12.6046 19.3058C13.1027 19.5124 13.5455 19.7953 13.9531 20.0558C13.9928 20.0812 14.0322 20.1063 14.0712 20.1312C14.8352 20.6418 15.2846 20.8818 15.7512 20.8418C15.9446 20.8152 16.1259 20.7578 16.2979 20.6512C16.9467 20.2512 18.6289 17.8677 19.1326 17.1539C19.2065 17.0493 19.255 16.9805 19.2712 16.9592C20.7246 15.0658 22.9646 14.5592 24.8312 15.6792C25.0819 15.8285 26.8779 17.0832 27.4726 17.5872V10.5178C27.4726 6.88318 25.2526 4.52718 21.8046 4.52718H10.1832ZM21.8046 2.66718C26.3072 2.66718 29.3326 5.81651 29.3326 10.5178V21.4698C29.3326 21.5881 29.3201 21.699 29.3077 21.8098C29.299 21.8877 29.2903 21.9655 29.2859 22.0458C29.283 22.0944 29.2816 22.143 29.2803 22.1916C29.2784 22.2563 29.2766 22.3211 29.2712 22.3858C29.2686 22.4112 29.2636 22.4355 29.2586 22.4598C29.2536 22.4842 29.2486 22.5085 29.2459 22.5338C29.2019 22.9525 29.1339 23.3525 29.0392 23.7405C29.0168 23.8375 28.991 23.931 28.9649 24.0253L28.9592 24.0458C28.8526 24.4218 28.7272 24.7805 28.5766 25.1232C28.5502 25.1808 28.5223 25.2369 28.4945 25.2931C28.4759 25.3305 28.4574 25.368 28.4392 25.4058C28.2766 25.7325 28.1006 26.0458 27.8966 26.3365C27.8588 26.3903 27.8186 26.4407 27.7784 26.4913C27.7518 26.5246 27.7252 26.558 27.6992 26.5925C27.4872 26.8672 27.2659 27.1298 27.0152 27.3685C26.9652 27.4161 26.9111 27.4596 26.857 27.5032C26.8232 27.5304 26.7894 27.5576 26.7566 27.5858C26.4992 27.8072 26.2366 28.0192 25.9472 28.2005C25.8841 28.2402 25.817 28.2735 25.7502 28.3066C25.7069 28.3281 25.6638 28.3495 25.6219 28.3725C25.3272 28.5352 25.0299 28.6938 24.7059 28.8165C24.6279 28.8461 24.545 28.8675 24.4618 28.889C24.4027 28.9043 24.3435 28.9196 24.2859 28.9378C24.257 28.9468 24.2282 28.9557 24.1994 28.9647C23.91 29.0547 23.6215 29.1445 23.3099 29.1978C23.1293 29.2295 22.9377 29.2416 22.746 29.2538C22.663 29.2591 22.58 29.2643 22.4979 29.2712C22.4096 29.2778 22.323 29.2884 22.2363 29.2991C22.0953 29.3165 21.954 29.3338 21.8046 29.3338H10.1832C9.68189 29.3338 9.20323 29.2832 8.74056 29.2072C8.72323 29.2045 8.70723 29.2018 8.69123 29.1992C6.88723 28.8885 5.38989 28.0178 4.34056 26.7045C4.33327 26.7045 4.33041 26.6996 4.3266 26.693C4.32413 26.6888 4.32127 26.6839 4.31656 26.6792C3.26189 25.3512 2.66589 23.5658 2.66589 21.4698V10.5178C2.66589 5.81651 5.69389 2.66718 10.1832 2.66718H21.8046ZM14.6667 11.3533C14.6667 13.1599 13.1551 14.6666 11.3398 14.6666C9.74421 14.6666 8.38375 13.5008 8.07884 11.9915C8.02845 11.765 8.00003 11.5321 8.00003 11.2915C8.00003 9.47202 9.47806 7.99998 11.3049 7.99998C12.2352 7.99998 13.0775 8.39115 13.6809 9.01522C14.2868 9.61742 14.6667 10.4474 14.6667 11.3533Z" fill="#B2B2B2"/>
</svg>
